<?xml version="1.0" encoding="UTF-8" standalone="no"?>
<!DOCTYPE svg PUBLIC "-//W3C//DTD SVG 1.1//EN" "http://www.w3.org/Graphics/SVG/1.1/DTD/svg11.dtd">
<svg width="100%" height="100%" viewBox="0 0 1039 405" version="1.1" xmlns="http://www.w3.org/2000/svg" xmlns:xlink="http://www.w3.org/1999/xlink" xml:space="preserve" xmlns:serif="http://www.serif.com/" style="fill-rule:evenodd;clip-rule:evenodd;stroke-linejoin:round;stroke-miterlimit:1.41421;">
    <g transform="matrix(1,0,0,1,-1827,-436)">
        <g id="logo-main" transform="matrix(1,0,0,1,983.967,-552.228)">
            <path d="M1004.15,1226.15C1004.15,1226.15 1004.15,1226.15 1004.15,1226.15C1004.15,1207.59 1019.18,1192.54 1037.75,1192.51C1056.71,1192.48 1080.12,1192.44 1097.98,1192.41C1105.26,1192.4 1112.24,1195.28 1117.39,1200.43C1122.55,1205.57 1125.44,1212.55 1125.44,1219.83C1125.44,1251.31 1125.44,1298.62 1125.44,1298.62C1106.82,1313.46 1087.62,1324.62 1067.83,1332.11C1048.03,1339.6 1027.72,1343.34 1006.89,1343.34C978.763,1343.34 953.209,1337.32 930.227,1325.28C907.246,1313.23 889.895,1295.82 878.177,1273.03C866.458,1250.24 860.598,1224.79 860.598,1196.66C860.598,1168.8 866.425,1142.79 878.079,1118.63C889.733,1094.48 906.497,1076.55 928.372,1064.83C950.247,1053.11 975.442,1047.25 1003.96,1047.25C1024.66,1047.25 1043.38,1050.6 1060.11,1057.31C1076.84,1064.01 1089.96,1073.36 1099.47,1085.34C1103.34,1090.21 1106.83,1095.69 1109.94,1101.78C1113.65,1108.94 1113.93,1117.39 1110.69,1124.78C1107.46,1132.17 1101.06,1137.7 1093.28,1139.84C1089.54,1140.88 1086.97,1141.59 1086.97,1141.59C1082.67,1127 1077.33,1115.54 1070.95,1107.21C1064.57,1098.88 1055.45,1092.2 1043.61,1087.19C1031.76,1082.18 1018.61,1079.67 1004.15,1079.67C986.835,1079.67 971.862,1082.31 959.231,1087.58C946.601,1092.85 936.412,1099.79 928.665,1108.38C920.918,1116.98 914.895,1126.41 910.598,1136.7C903.307,1154.41 899.661,1173.62 899.661,1194.32C899.661,1219.84 904.056,1241.19 912.845,1258.38C921.634,1275.57 934.427,1288.33 951.223,1296.66C968.02,1305 985.859,1309.16 1004.74,1309.16C1021.14,1309.16 1037.16,1306.01 1052.79,1299.69C1068.41,1293.38 1080.26,1286.64 1088.33,1279.48L1088.33,1226.15L1004.15,1226.15Z" style="fill-rule:nonzero;"/>
            <path d="M1206.49,1338.46C1201.26,1338.46 1196.25,1336.38 1192.55,1332.68C1188.85,1328.98 1186.77,1323.97 1186.77,1318.74C1186.77,1318.54 1186.77,1318.34 1186.77,1318.14C1186.77,1312.91 1188.85,1307.9 1192.55,1304.2C1196.25,1300.5 1201.26,1298.42 1206.49,1298.42C1206.69,1298.42 1206.89,1298.42 1207.09,1298.42C1212.32,1298.42 1217.33,1300.5 1221.03,1304.2C1224.73,1307.9 1226.81,1312.91 1226.81,1318.14C1226.81,1318.34 1226.81,1318.54 1226.81,1318.74C1226.81,1323.97 1224.73,1328.98 1221.03,1332.68C1217.33,1336.38 1212.32,1338.46 1207.09,1338.46C1206.89,1338.46 1206.69,1338.46 1206.49,1338.46Z" style="fill-rule:nonzero;"/>
            <g transform="matrix(1,0,0,1,90,0)">
                <path d="M1260.99,1338.46C1260.99,1338.46 1338.87,1135.66 1363.55,1071.41C1368.01,1059.8 1379.16,1052.13 1391.6,1052.13C1391.6,1052.13 1391.6,1052.13 1391.6,1052.13C1403.8,1052.13 1414.79,1059.51 1419.41,1070.8C1438.19,1116.68 1486.94,1235.8 1512.61,1298.51C1516.27,1307.45 1515.23,1317.62 1509.85,1325.63C1504.47,1333.65 1495.45,1338.46 1485.8,1338.46C1485.79,1338.46 1485.79,1338.46 1485.79,1338.46L1452.39,1251.74L1332.67,1251.74C1332.67,1251.74 1320.03,1286.6 1310.78,1312.12C1305.04,1327.93 1290.02,1338.46 1273.2,1338.46C1266.37,1338.46 1260.99,1338.46 1260.99,1338.46ZM1343.61,1220.88L1440.68,1220.88L1410.79,1141.59C1403.78,1123.03 1398.14,1107.03 1393.91,1093.58C1393.5,1092.25 1392.25,1091.36 1390.86,1091.41C1389.47,1091.46 1388.29,1092.44 1387.98,1093.79C1384.6,1108.24 1380.29,1122.61 1375.05,1136.9L1343.61,1220.88Z" style="fill-rule:nonzero;"/>
            </g>
            <path d="M1676.81,1338.46C1676.81,1338.46 1676.81,1167.85 1676.81,1090.02C1676.81,1079.97 1680.8,1070.34 1687.91,1063.23C1695.01,1056.12 1704.65,1052.13 1714.7,1052.13C1714.7,1052.13 1714.7,1052.13 1714.7,1052.13C1714.7,1052.13 1714.7,1222.74 1714.7,1300.57C1714.7,1310.62 1710.71,1320.26 1703.6,1327.36C1696.5,1334.47 1686.86,1338.46 1676.81,1338.46C1676.81,1338.46 1676.81,1338.46 1676.81,1338.46Z" style="fill-rule:nonzero;"/>
        </g>
        <g id="logo-tech" transform="matrix(1.28001e-16,-2.09041,2.09041,1.28001e-16,0.302057,5708.65)">
            <path d="M2370.33,1355.28C2367.49,1355.28 2365.2,1352.98 2365.2,1350.15C2365.2,1340.61 2365.2,1321.08 2365.2,1321.08C2365.2,1321.08 2360.66,1321.08 2357,1321.08C2355.78,1321.08 2354.62,1320.6 2353.76,1319.74C2352.9,1318.88 2352.42,1317.72 2352.42,1316.51C2352.42,1316.51 2352.42,1316.51 2352.42,1316.51C2352.42,1316.51 2370.01,1316.51 2378.58,1316.51C2379.79,1316.51 2380.96,1316.99 2381.81,1317.85C2382.67,1318.7 2383.15,1319.87 2383.15,1321.08C2383.15,1321.08 2383.15,1321.08 2383.15,1321.08L2370.33,1321.08L2370.33,1355.28C2370.33,1355.28 2370.33,1355.28 2370.33,1355.28Z" style="fill:rgb(252,84,84);fill-rule:nonzero;"/>
            <path d="M2388.52,1355.28L2388.52,1316.51L2416.56,1316.51C2416.56,1316.51 2416.56,1316.51 2416.56,1316.51C2416.56,1317.72 2416.08,1318.88 2415.22,1319.74C2414.36,1320.6 2413.2,1321.08 2411.98,1321.08C2405.3,1321.08 2393.65,1321.08 2393.65,1321.08L2393.65,1332.96L2415.1,1332.96C2415.1,1332.96 2415.1,1332.96 2415.1,1332.96C2415.1,1334.16 2414.62,1335.32 2413.77,1336.17C2412.92,1337.03 2411.76,1337.51 2410.56,1337.51C2404.26,1337.51 2393.65,1337.51 2393.65,1337.51L2393.65,1350.7L2417.46,1350.7C2417.46,1350.7 2417.46,1350.7 2417.46,1350.7C2417.46,1351.92 2416.98,1353.08 2416.12,1353.94C2415.26,1354.8 2414.1,1355.28 2412.88,1355.28C2404.73,1355.28 2388.52,1355.28 2388.52,1355.28Z" style="fill:rgb(252,84,84);fill-rule:nonzero;"/>
            <path d="M2450.71,1345.9C2452,1343.53 2454.72,1342.34 2457.34,1343C2457.34,1342.98 2457.34,1342.98 2457.34,1342.98C2456.27,1347.19 2454.33,1350.41 2451.54,1352.62C2448.74,1354.83 2445.33,1355.94 2441.29,1355.94C2437.11,1355.94 2433.71,1355.09 2431.09,1353.39C2428.47,1351.69 2426.48,1349.22 2425.12,1346C2423.75,1342.77 2423.07,1339.3 2423.07,1335.6C2423.07,1331.56 2423.84,1328.04 2425.38,1325.04C2426.92,1322.03 2429.12,1319.75 2431.97,1318.18C2434.81,1316.62 2437.95,1315.84 2441.37,1315.84C2445.25,1315.84 2448.51,1316.83 2451.15,1318.81C2453.8,1320.78 2455.64,1323.56 2456.68,1327.14C2456.68,1327.14 2456.14,1327.27 2455.41,1327.44C2453.39,1327.91 2451.3,1327 2450.28,1325.19C2449.57,1323.92 2448.71,1322.91 2447.72,1322.16C2446.01,1320.88 2443.85,1320.24 2441.26,1320.24C2438.28,1320.24 2435.79,1320.95 2433.79,1322.38C2431.79,1323.81 2430.38,1325.72 2429.57,1328.13C2428.76,1330.54 2428.36,1333.02 2428.36,1335.58C2428.36,1338.87 2428.84,1341.75 2429.8,1344.21C2430.76,1346.67 2432.25,1348.51 2434.28,1349.73C2436.31,1350.94 2438.5,1351.55 2440.87,1351.55C2443.74,1351.55 2446.17,1350.72 2448.16,1349.06C2449.18,1348.22 2450.03,1347.16 2450.71,1345.9Z" style="fill:rgb(252,84,84);fill-rule:nonzero;"/>
            <path d="M2468.95,1355.28C2466.12,1355.28 2463.82,1352.98 2463.82,1350.15C2463.82,1339.61 2463.82,1316.51 2463.82,1316.51C2463.82,1316.51 2463.82,1316.51 2463.82,1316.51C2466.66,1316.51 2468.95,1318.8 2468.95,1321.64C2468.95,1326.29 2468.95,1332.43 2468.95,1332.43L2489.11,1332.43L2489.11,1316.51C2489.11,1316.51 2489.11,1316.51 2489.11,1316.51C2491.94,1316.51 2494.24,1318.8 2494.24,1321.64C2494.24,1332.17 2494.24,1355.28 2494.24,1355.28C2494.24,1355.28 2494.24,1355.28 2494.24,1355.28C2491.4,1355.28 2489.11,1352.98 2489.11,1350.15C2489.11,1344.74 2489.11,1337 2489.11,1337L2468.95,1337L2468.95,1355.28C2468.95,1355.28 2468.95,1355.28 2468.95,1355.28Z" style="fill:rgb(252,84,84);fill-rule:nonzero;"/>
        </g>
    </g>
</svg>
