<svg version="1" xmlns="http://www.w3.org/2000/svg" width="830.667" height="830.667" viewBox="0 0 623.000000 623.000000"><path d="M22.9 2.4C14.1 5.5 8.4 10.8 4.4 19.5l-2.4 5 .1 286c0 238.1.2 286.6 1.3 289.8 3.5 9.6 12.5 17.5 22.6 19.6 4.2.9 74.5 1.1 289 .9l283.5-.3 4.6-2.1c9.6-4.5 15.9-12.5 17.8-22.9.9-4.4 1.1-79.8.9-288.5l-.3-282.5-2.3-5.1c-2.7-6-8.9-12.3-15.2-15.6l-4.5-2.3L313 1.3C80.6 1.1 25.8 1.3 22.9 2.4zm370.3 495.3c5.3 2.9 10 8 12.3 13.7 2 4.8 1.9 6.3-.6 7.7-3.9 2.1-8.7.2-14.2-5.6-4.3-4.5-6-5.6-9.9-6.4-9.2-1.7-17.6 1.5-21.6 8.2-4.3 7.2-5.2 20.3-2.1 31.2 2.6 9.1 14.2 15.1 24 12.5 4-1.1 8.6-4.7 12-9.6 2.4-3.3 6.1-5.4 10-5.4 5.5 0 6.2 1.6 3.4 8.3-3.2 7.9-6.7 12.2-12.7 15.6-12.1 6.9-31.5 5.5-40.5-2.9-15.3-14.2-17.1-44.7-3.5-60.1 9.6-11 30.2-14.4 43.4-7.2zm-252.3-1.1c1.3.9 3 3.2 3.8 5.1 2.3 5.6.9 6.3-11.8 6.3H122l-.2 31.2-.3 31.3-3.2.3c-2.5.3-3.9-.4-6.7-3.3l-3.6-3.6V508h-7c-9 0-13.5-1.8-15.6-6.4-3.2-6.7-3.5-6.6 26.3-6.6 23.2 0 27.2.2 29.2 1.6zm128.8-.5c.6.6.9 1.9.6 2.8-2.6 8.2-5.1 9.1-25.7 9.1H228v17h18.9c20.5 0 21.8.3 20.5 5.4-.3 1.4-2 3.7-3.6 5.1-2.9 2.4-3.3 2.5-19.4 2.5H228v20h21.5c18.3 0 21.7.2 22.1 1.5 1 2.5-.5 6.5-3.3 9.1l-2.6 2.4-25.6-.2-25.6-.3-.3-36.5c-.1-20.1 0-37.1.3-37.7.6-1.7 53.5-1.9 55.2-.2zm215.3.4c4.8 2.5 6 6.1 6 17.5v10h32.9l.3-14.3c.3-13.7.4-14.2 2.5-14.5 3.4-.5 7.9 2.4 9.7 6.2 1.4 3 1.6 7.5 1.4 36.3l-.3 32.8-2.7.3c-1.5.2-3.9-.4-5.3-1.4-4.6-3-5.5-6.2-5.5-19.4v-12h-33l-.2 16.2-.3 16.3-2.7.3c-1.5.2-3.9-.4-5.3-1.4-5.4-3.5-5.5-4.6-5.5-40.2 0-18.1.3-33.2.7-33.5 1.1-1.1 4.2-.8 7.3.8z"/></svg>